<svg width="46" height="44" viewBox="0 0 46 44" fill="none" xmlns="http://www.w3.org/2000/svg">
<rect width="46" height="44" rx="4" fill="#0052CC" fill-opacity="0.1"/>
<path d="M22 32C20.6167 32 19.3167 31.7375 18.1 31.2125C16.8833 30.6875 15.825 29.975 14.925 29.075C14.025 28.175 13.3125 27.1167 12.7875 25.9C12.2625 24.6833 12 23.3833 12 22C12 20.6167 12.2625 19.3167 12.7875 18.1C13.3125 16.8833 14.025 15.825 14.925 14.925C15.825 14.025 16.8833 13.3125 18.1 12.7875C19.3167 12.2625 20.6167 12 22 12C23.0833 12 24.1083 12.1583 25.075 12.475C26.0417 12.7917 26.9333 13.2333 27.75 13.8L26.3 15.275C25.6667 14.875 24.9917 14.5625 24.275 14.3375C23.5583 14.1125 22.8 14 22 14C19.7833 14 17.8958 14.7792 16.3375 16.3375C14.7792 17.8958 14 19.7833 14 22C14 24.2167 14.7792 26.1042 16.3375 27.6625C17.8958 29.2208 19.7833 30 22 30C22.5333 30 23.05 29.95 23.55 29.85C24.05 29.75 24.5333 29.6083 25 29.425L26.5 30.95C25.8167 31.2833 25.1 31.5417 24.35 31.725C23.6 31.9083 22.8167 32 22 32ZM29 30V27H26V25H29V22H31V25H34V27H31V30H29ZM20.6 26.6L16.35 22.35L17.75 20.95L20.6 23.8L30.6 13.775L32 15.175L20.6 26.6Z" fill="#0052CC"/>
</svg>
