<svg width="64" height="64" viewBox="0 0 64 64" fill="none" xmlns="http://www.w3.org/2000/svg">
<rect width="64" height="64" rx="12" fill="#FFDAD6"/>
<path d="M41.75 44.375L38.4375 41.125H25.125C23.2083 41.125 21.5833 40.4583 20.25 39.125C18.9167 37.7917 18.25 36.1667 18.25 34.25C18.25 32.6458 18.7448 31.2188 19.7344 29.9688C20.724 28.7188 22 27.9167 23.5625 27.5625C23.625 27.3958 23.6875 27.2344 23.75 27.0781C23.8125 26.9219 23.875 26.75 23.9375 26.5625L18.75 21.375L20.5 19.625L43.5 42.625L41.75 44.375ZM25.125 38.625H35.9375L25.875 28.5625C25.8333 28.7917 25.8021 29.0104 25.7812 29.2188C25.7604 29.4271 25.75 29.6458 25.75 29.875H25.125C23.9167 29.875 22.8854 30.3021 22.0312 31.1562C21.1771 32.0104 20.75 33.0417 20.75 34.25C20.75 35.4583 21.1771 36.4896 22.0312 37.3438C22.8854 38.1979 23.9167 38.625 25.125 38.625ZM44 39.5625L42.1875 37.8125C42.5417 37.5208 42.8073 37.1823 42.9844 36.7969C43.1615 36.4115 43.25 35.9792 43.25 35.5C43.25 34.625 42.9479 33.8854 42.3438 33.2812C41.7396 32.6771 41 32.375 40.125 32.375H38.25V29.875C38.25 28.1458 37.6406 26.6719 36.4219 25.4531C35.2031 24.2344 33.7292 23.625 32 23.625C31.4375 23.625 30.8958 23.6927 30.375 23.8281C29.8542 23.9635 29.3542 24.1771 28.875 24.4688L27.0625 22.6562C27.7917 22.1562 28.5677 21.776 29.3906 21.5156C30.2135 21.2552 31.0833 21.125 32 21.125C34.4375 21.125 36.5052 21.974 38.2031 23.6719C39.901 25.3698 40.75 27.4375 40.75 29.875C42.1875 30.0417 43.3802 30.6615 44.3281 31.7344C45.276 32.8073 45.75 34.0625 45.75 35.5C45.75 36.3125 45.5938 37.0677 45.2812 37.7656C44.9688 38.4635 44.5417 39.0625 44 39.5625Z" fill="#BA1A1A"/>
</svg>
