<svg width="48" height="48" viewBox="0 0 48 48" fill="none" xmlns="http://www.w3.org/2000/svg">
<rect width="48" height="48" rx="12" fill="#D7E2FF"/>
<path d="M21 31V29H33V31H21ZM21 25V23H33V25H21ZM21 19V17H33V19H21ZM17 32C16.45 32 15.9792 31.8042 15.5875 31.4125C15.1958 31.0208 15 30.55 15 30C15 29.45 15.1958 28.9792 15.5875 28.5875C15.9792 28.1958 16.45 28 17 28C17.55 28 18.0208 28.1958 18.4125 28.5875C18.8042 28.9792 19 29.45 19 30C19 30.55 18.8042 31.0208 18.4125 31.4125C18.0208 31.8042 17.55 32 17 32ZM17 26C16.45 26 15.9792 25.8042 15.5875 25.4125C15.1958 25.0208 15 24.55 15 24C15 23.45 15.1958 22.9792 15.5875 22.5875C15.9792 22.1958 16.45 22 17 22C17.55 22 18.0208 22.1958 18.4125 22.5875C18.8042 22.9792 19 23.45 19 24C19 24.55 18.8042 25.0208 18.4125 25.4125C18.0208 25.8042 17.55 26 17 26ZM17 20C16.45 20 15.9792 19.8042 15.5875 19.4125C15.1958 19.0208 15 18.55 15 18C15 17.45 15.1958 16.9792 15.5875 16.5875C15.9792 16.1958 16.45 16 17 16C17.55 16 18.0208 16.1958 18.4125 16.5875C18.8042 16.9792 19 17.45 19 18C19 18.55 18.8042 19.0208 18.4125 19.4125C18.0208 19.8042 17.55 20 17 20Z" fill="#041B3C" fill-opacity="0.3"/>
</svg>
